<svg width="79" height="239" viewBox="0 0 79 239" fill="none" xmlns="http://www.w3.org/2000/svg">
<rect opacity="0.3" x="1" y="1" width="77" height="237" stroke="white" stroke-width="2"/>
<path d="M29.3235 35.192C28.5395 35.192 27.6435 35.136 26.6355 35.024C25.6275 34.928 24.7555 34.808 24.0195 34.664V31.592C25.9715 31.784 27.6115 31.88 28.9395 31.88C29.7715 31.88 30.3715 31.848 30.7395 31.784C31.1075 31.72 31.3795 31.568 31.5555 31.328C31.7315 31.088 31.8195 30.696 31.8195 30.152C31.8195 29.624 31.7555 29.232 31.6275 28.976C31.4995 28.704 31.2755 28.52 30.9555 28.424C30.6515 28.328 30.2035 28.28 29.6115 28.28H26.8515V25.016H29.6115C30.1555 25.016 30.5715 24.976 30.8595 24.896C31.1475 24.816 31.3555 24.656 31.4835 24.416C31.6115 24.16 31.6755 23.792 31.6755 23.312C31.6755 22.768 31.5955 22.384 31.4355 22.16C31.2755 21.92 31.0035 21.768 30.6195 21.704C30.2355 21.64 29.5955 21.608 28.6995 21.608C28.0275 21.608 27.2515 21.64 26.3715 21.704C25.5075 21.768 24.7555 21.84 24.1155 21.92V18.824C24.8195 18.664 25.6675 18.536 26.6595 18.44C27.6515 18.344 28.5475 18.296 29.3475 18.296C30.9795 18.296 32.2755 18.464 33.2355 18.8C34.1955 19.12 34.8755 19.6 35.2755 20.24C35.6755 20.864 35.8755 21.664 35.8755 22.64C35.8755 23.808 35.6435 24.696 35.1795 25.304C34.7155 25.896 33.9955 26.304 33.0195 26.528V26.624C34.0595 26.864 34.8195 27.264 35.2995 27.824C35.7795 28.384 36.0195 29.304 36.0195 30.584C36.0195 31.592 35.8355 32.432 35.4675 33.104C35.0995 33.76 34.4195 34.272 33.4275 34.64C32.4515 35.008 31.0835 35.192 29.3235 35.192ZM41.5028 18.488H47.3348C49.7668 18.488 51.5028 18.736 52.5428 19.232C53.5828 19.712 54.2308 20.48 54.4868 21.536C54.7428 22.576 54.8708 24.312 54.8708 26.744C54.8708 29.176 54.7428 30.92 54.4868 31.976C54.2308 33.016 53.5828 33.784 52.5428 34.28C51.5028 34.76 49.7668 35 47.3348 35H41.5028V18.488ZM47.2388 31.616C48.4708 31.616 49.2868 31.544 49.6868 31.4C50.1028 31.24 50.3588 30.872 50.4548 30.296C50.5668 29.704 50.6228 28.52 50.6228 26.744C50.6228 24.984 50.5668 23.808 50.4548 23.216C50.3428 22.624 50.0788 22.256 49.6628 22.112C49.2628 21.952 48.4548 21.872 47.2388 21.872H45.6548V31.616H47.2388ZM34.0149 59L33.0309 55.88H27.1509L26.2149 59H22.0389L27.3189 42.488H32.9829L38.2629 59H34.0149ZM30.1269 46.184H30.0069L28.1109 52.496H32.0469L30.1269 46.184ZM51.8561 59L49.6961 53.216H46.7921V59H42.6161V42.488H50.5361C52.0561 42.488 53.2001 42.704 53.9681 43.136C54.7521 43.552 55.2641 44.136 55.5041 44.888C55.7601 45.624 55.8881 46.616 55.8881 47.864C55.8881 49.016 55.7361 50.016 55.4321 50.864C55.1441 51.712 54.5601 52.328 53.6801 52.712L56.2241 59H51.8561ZM48.9521 49.904C49.8161 49.904 50.4241 49.856 50.7761 49.76C51.1441 49.664 51.3841 49.488 51.4961 49.232C51.6081 48.96 51.6641 48.512 51.6641 47.888C51.6641 47.248 51.6161 46.8 51.5201 46.544C51.4241 46.272 51.1921 46.088 50.8241 45.992C50.4721 45.896 49.8641 45.848 49.0001 45.848H46.7921V49.904H48.9521Z" fill="white"/>
<path opacity="0.2" d="M22.3906 87.75V107.25" stroke="white" stroke-width="2" stroke-linejoin="round"/>
<path opacity="0.2" d="M39.5039 78V117" stroke="white" stroke-width="2" stroke-linejoin="round"/>
<path opacity="0.2" d="M56.6133 87.75V107.25" stroke="white" stroke-width="2" stroke-linejoin="round"/>
<path opacity="0.2" d="M39.498 78L56.6053 87.75L39.498 97.5L22.3906 87.75L39.498 78Z" stroke="white" stroke-width="2" stroke-linejoin="round"/>
<path opacity="0.2" d="M39.498 97.5L56.6053 107.25L39.498 117L22.3906 107.25L39.498 97.5Z" stroke="white" stroke-width="2" stroke-linejoin="round"/>
<path d="M34.3711 94.5742L39.5033 97.4992L44.6355 94.5742" stroke="white" stroke-width="2"/>
<path d="M34.3711 80.9258L39.5033 78.0008L44.6355 80.9258" stroke="white" stroke-width="2"/>
<path d="M34.3711 114.074L39.5033 116.999L44.6355 114.074" stroke="white" stroke-width="2"/>
<path d="M39.5 97.5L39.5 103.837" stroke="white" stroke-width="2"/>
<path d="M39.5 78L39.5 84.3374" stroke="white" stroke-width="2"/>
<path d="M39.5 117L39.5 110.663" stroke="white" stroke-width="2"/>
<path d="M51.3242 84.7793L56.4301 87.7498L56.4564 93.6452" stroke="white" stroke-width="2"/>
<path d="M22.5391 101.355L22.5654 107.251L27.6713 110.221" stroke="white" stroke-width="2"/>
<path d="M56.4297 87.75L50.9269 90.9187" stroke="white" stroke-width="2"/>
<path d="M22.5742 107.25L28.077 104.081" stroke="white" stroke-width="2"/>
<path d="M56.4609 101.355L56.4346 107.251L51.3287 110.221" stroke="white" stroke-width="2"/>
<path d="M27.6719 84.7793L22.566 87.7498L22.5397 93.6452" stroke="white" stroke-width="2"/>
<path d="M56.4297 107.25L50.9269 104.081" stroke="white" stroke-width="2"/>
<path d="M22.5742 87.75L28.077 90.9187" stroke="white" stroke-width="2"/>
<path opacity="0.5" d="M17.6998 165.088C16.6291 165.088 15.6795 165.026 14.8508 164.901V163.405C15.7455 163.493 16.5008 163.537 17.1168 163.537C17.4761 163.537 17.7511 163.522 17.9418 163.493C18.1325 163.464 18.2681 163.416 18.3488 163.35C18.4221 163.291 18.4661 163.222 18.4808 163.141C18.5028 163.053 18.5138 162.932 18.5138 162.778C18.5138 162.595 18.4991 162.463 18.4698 162.382C18.4405 162.301 18.3818 162.246 18.2938 162.217C18.2058 162.18 18.0518 162.147 17.8318 162.118L16.4348 161.942C15.9361 161.883 15.5548 161.759 15.2908 161.568C15.0341 161.37 14.8581 161.117 14.7628 160.809C14.6748 160.501 14.6308 160.116 14.6308 159.654C14.6308 159.001 14.7518 158.506 14.9938 158.169C15.2358 157.832 15.5585 157.612 15.9618 157.509C16.3725 157.399 16.8931 157.344 17.5238 157.344C17.9858 157.344 18.4075 157.362 18.7888 157.399C19.1775 157.436 19.5991 157.494 20.0538 157.575V159.038C19.1811 158.943 18.4661 158.895 17.9088 158.895C17.3221 158.895 16.9408 158.939 16.7648 159.027C16.6695 159.071 16.6071 159.133 16.5778 159.214C16.5558 159.295 16.5448 159.408 16.5448 159.555C16.5448 159.738 16.5558 159.87 16.5778 159.951C16.6071 160.024 16.6621 160.079 16.7428 160.116C16.8308 160.145 16.9811 160.175 17.1938 160.204L18.7998 160.402C19.1225 160.439 19.3865 160.505 19.5918 160.6C19.8045 160.695 19.9805 160.857 20.1198 161.084C20.3325 161.399 20.4388 161.902 20.4388 162.591C20.4388 163.31 20.3251 163.852 20.0978 164.219C19.8705 164.578 19.5661 164.813 19.1848 164.923C18.8035 165.033 18.3085 165.088 17.6998 165.088ZM22.8491 165V157.432H28.2171V158.983H24.7631V160.402H27.6891V161.953H24.7631V163.449H28.2171V165H22.8491ZM30.7167 165V157.432H36.0847V158.983H32.6307V160.402H35.5567V161.953H32.6307V163.449H36.0847V165H30.7167ZM43.9187 165V159.06H41.8287V157.432H47.9337V159.06H45.8327V165H43.9187ZM54.313 165V162.03H51.893V165H49.979V157.432H51.893V160.38H54.313V157.432H56.227V165H54.313ZM58.9106 165V157.432H64.2786V158.983H60.8246V160.402H63.7506V161.953H60.8246V163.449H64.2786V165H58.9106ZM17.1642 183V177.06H15.0742V175.432H21.1792V177.06H19.0782V183H17.1642ZM27.4816 183L26.4916 180.349H25.1606V183H23.2466V175.432H26.8766C27.5732 175.432 28.0976 175.531 28.4496 175.729C28.8089 175.92 29.0436 176.187 29.1536 176.532C29.2709 176.869 29.3296 177.324 29.3296 177.896C29.3296 178.424 29.2599 178.882 29.1206 179.271C28.9886 179.66 28.7209 179.942 28.3176 180.118L29.4836 183H27.4816ZM26.1506 178.831C26.5466 178.831 26.8252 178.809 26.9866 178.765C27.1552 178.721 27.2652 178.64 27.3166 178.523C27.3679 178.398 27.3936 178.193 27.3936 177.907C27.3936 177.614 27.3716 177.408 27.3276 177.291C27.2836 177.166 27.1772 177.082 27.0086 177.038C26.8472 176.994 26.5686 176.972 26.1726 176.972H25.1606V178.831H26.1506ZM34.9034 183.088C33.84 183.088 33.081 182.978 32.6264 182.758C32.179 182.531 31.8967 182.171 31.7794 181.68C31.6694 181.189 31.6144 180.367 31.6144 179.216C31.6144 178.065 31.6694 177.243 31.7794 176.752C31.8967 176.261 32.179 175.905 32.6264 175.685C33.081 175.458 33.84 175.344 34.9034 175.344C35.9667 175.344 36.722 175.458 37.1694 175.685C37.624 175.905 37.9064 176.261 38.0164 176.752C38.1264 177.243 38.1814 178.065 38.1814 179.216C38.1814 180.367 38.1264 181.189 38.0164 181.68C37.9064 182.171 37.624 182.531 37.1694 182.758C36.722 182.978 35.9667 183.088 34.9034 183.088ZM34.9034 181.537C35.38 181.537 35.699 181.5 35.8604 181.427C36.0217 181.346 36.1244 181.167 36.1684 180.888C36.2124 180.609 36.2344 180.052 36.2344 179.216C36.2344 178.38 36.2124 177.823 36.1684 177.544C36.1244 177.265 36.0217 177.089 35.8604 177.016C35.699 176.935 35.38 176.895 34.9034 176.895C34.4267 176.895 34.104 176.935 33.9354 177.016C33.7667 177.089 33.6604 177.269 33.6164 177.555C33.5724 177.841 33.5504 178.395 33.5504 179.216C33.5504 180.037 33.5724 180.591 33.6164 180.877C33.6604 181.163 33.7667 181.346 33.9354 181.427C34.104 181.5 34.4267 181.537 34.9034 181.537ZM45.1667 183L42.5487 178.677H42.4937V183H40.6677V175.432H42.6367L45.0677 179.359H45.1227V175.432H46.9597V183H45.1667ZM57.9137 183L56.4837 180.701H56.3847L54.9437 183H52.8537L55.2847 179.194L52.8977 175.432H55.0757L56.4617 177.676H56.5497L57.9577 175.432H60.0587L57.6717 179.161L60.0917 183H57.9137ZM13.1849 201V193.432H15.0989V201H13.1849ZM22.2644 201L19.6464 196.677H19.5914V201H17.7654V193.432H19.7344L22.1654 197.359H22.2204V193.432H24.0574V201H22.2644ZM32.3384 201V198.426L29.8194 193.432H31.7994L33.2844 196.556H33.3614L34.8354 193.432H36.7714L34.2524 198.426V201H32.3384ZM41.6237 201.088C40.5604 201.088 39.8014 200.978 39.3467 200.758C38.8994 200.531 38.617 200.171 38.4997 199.68C38.3897 199.189 38.3347 198.367 38.3347 197.216C38.3347 196.065 38.3897 195.243 38.4997 194.752C38.617 194.261 38.8994 193.905 39.3467 193.685C39.8014 193.458 40.5604 193.344 41.6237 193.344C42.687 193.344 43.4424 193.458 43.8897 193.685C44.3444 193.905 44.6267 194.261 44.7367 194.752C44.8467 195.243 44.9017 196.065 44.9017 197.216C44.9017 198.367 44.8467 199.189 44.7367 199.68C44.6267 200.171 44.3444 200.531 43.8897 200.758C43.4424 200.978 42.687 201.088 41.6237 201.088ZM41.6237 199.537C42.1004 199.537 42.4194 199.5 42.5807 199.427C42.742 199.346 42.8447 199.167 42.8887 198.888C42.9327 198.609 42.9547 198.052 42.9547 197.216C42.9547 196.38 42.9327 195.823 42.8887 195.544C42.8447 195.265 42.742 195.089 42.5807 195.016C42.4194 194.935 42.1004 194.895 41.6237 194.895C41.147 194.895 40.8244 194.935 40.6557 195.016C40.487 195.089 40.3807 195.269 40.3367 195.555C40.2927 195.841 40.2707 196.395 40.2707 197.216C40.2707 198.037 40.2927 198.591 40.3367 198.877C40.3807 199.163 40.487 199.346 40.6557 199.427C40.8244 199.5 41.147 199.537 41.6237 199.537ZM53.416 193.432V197.579C53.416 198.591 53.3537 199.332 53.229 199.801C53.1117 200.263 52.844 200.593 52.426 200.791C52.008 200.989 51.326 201.088 50.38 201.088C49.434 201.088 48.752 200.989 48.334 200.791C47.916 200.593 47.6447 200.263 47.52 199.801C47.4027 199.332 47.344 198.591 47.344 197.579V193.432H49.258V197.986C49.258 198.507 49.2764 198.866 49.313 199.064C49.3497 199.262 49.4414 199.394 49.588 199.46C49.7347 199.526 49.9987 199.559 50.38 199.559C50.7614 199.559 51.0254 199.526 51.172 199.46C51.3187 199.394 51.4104 199.262 51.447 199.064C51.4837 198.866 51.502 198.507 51.502 197.986V193.432H53.416ZM60.2968 201L59.3068 198.349H57.9758V201H56.0618V193.432H59.6918C60.3885 193.432 60.9128 193.531 61.2648 193.729C61.6241 193.92 61.8588 194.187 61.9688 194.532C62.0861 194.869 62.1448 195.324 62.1448 195.896C62.1448 196.424 62.0751 196.882 61.9358 197.271C61.8038 197.66 61.5361 197.942 61.1328 198.118L62.2988 201H60.2968ZM58.9658 196.831C59.3618 196.831 59.6405 196.809 59.8018 196.765C59.9705 196.721 60.0805 196.64 60.1318 196.523C60.1831 196.398 60.2088 196.193 60.2088 195.907C60.2088 195.614 60.1868 195.408 60.1428 195.291C60.0988 195.166 59.9925 195.082 59.8238 195.038C59.6625 194.994 59.3838 194.972 58.9878 194.972H57.9758V196.831H58.9658ZM26.4417 219L25.4517 216.349H24.1207V219H22.2067V211.432H25.8367C26.5334 211.432 27.0577 211.531 27.4097 211.729C27.769 211.92 28.0037 212.187 28.1137 212.532C28.231 212.869 28.2897 213.324 28.2897 213.896C28.2897 214.424 28.22 214.882 28.0807 215.271C27.9487 215.66 27.681 215.942 27.2777 216.118L28.4437 219H26.4417ZM25.1107 214.831C25.5067 214.831 25.7854 214.809 25.9467 214.765C26.1154 214.721 26.2254 214.64 26.2767 214.523C26.328 214.398 26.3537 214.193 26.3537 213.907C26.3537 213.614 26.3317 213.408 26.2877 213.291C26.2437 213.166 26.1374 213.082 25.9687 213.038C25.8074 212.994 25.5287 212.972 25.1327 212.972H24.1207V214.831H25.1107ZM33.8635 219.088C32.8002 219.088 32.0412 218.978 31.5865 218.758C31.1392 218.531 30.8569 218.171 30.7395 217.68C30.6295 217.189 30.5745 216.367 30.5745 215.216C30.5745 214.065 30.6295 213.243 30.7395 212.752C30.8569 212.261 31.1392 211.905 31.5865 211.685C32.0412 211.458 32.8002 211.344 33.8635 211.344C34.9269 211.344 35.6822 211.458 36.1295 211.685C36.5842 211.905 36.8665 212.261 36.9765 212.752C37.0865 213.243 37.1415 214.065 37.1415 215.216C37.1415 216.367 37.0865 217.189 36.9765 217.68C36.8665 218.171 36.5842 218.531 36.1295 218.758C35.6822 218.978 34.9269 219.088 33.8635 219.088ZM33.8635 217.537C34.3402 217.537 34.6592 217.5 34.8205 217.427C34.9819 217.346 35.0845 217.167 35.1285 216.888C35.1725 216.609 35.1945 216.052 35.1945 215.216C35.1945 214.38 35.1725 213.823 35.1285 213.544C35.0845 213.265 34.9819 213.089 34.8205 213.016C34.6592 212.935 34.3402 212.895 33.8635 212.895C33.3869 212.895 33.0642 212.935 32.8955 213.016C32.7269 213.089 32.6205 213.269 32.5765 213.555C32.5325 213.841 32.5105 214.395 32.5105 215.216C32.5105 216.037 32.5325 216.591 32.5765 216.877C32.6205 217.163 32.7269 217.346 32.8955 217.427C33.0642 217.5 33.3869 217.537 33.8635 217.537ZM42.7409 219.088C41.6775 219.088 40.9185 218.978 40.4639 218.758C40.0165 218.531 39.7342 218.171 39.6169 217.68C39.5069 217.189 39.4519 216.367 39.4519 215.216C39.4519 214.065 39.5069 213.243 39.6169 212.752C39.7342 212.261 40.0165 211.905 40.4639 211.685C40.9185 211.458 41.6775 211.344 42.7409 211.344C43.8042 211.344 44.5595 211.458 45.0069 211.685C45.4615 211.905 45.7439 212.261 45.8539 212.752C45.9639 213.243 46.0189 214.065 46.0189 215.216C46.0189 216.367 45.9639 217.189 45.8539 217.68C45.7439 218.171 45.4615 218.531 45.0069 218.758C44.5595 218.978 43.8042 219.088 42.7409 219.088ZM42.7409 217.537C43.2175 217.537 43.5365 217.5 43.6979 217.427C43.8592 217.346 43.9619 217.167 44.0059 216.888C44.0499 216.609 44.0719 216.052 44.0719 215.216C44.0719 214.38 44.0499 213.823 44.0059 213.544C43.9619 213.265 43.8592 213.089 43.6979 213.016C43.5365 212.935 43.2175 212.895 42.7409 212.895C42.2642 212.895 41.9415 212.935 41.7729 213.016C41.6042 213.089 41.4979 213.269 41.4539 213.555C41.4099 213.841 41.3879 214.395 41.3879 215.216C41.3879 216.037 41.4099 216.591 41.4539 216.877C41.4979 217.163 41.6042 217.346 41.7729 217.427C41.9415 217.5 42.2642 217.537 42.7409 217.537ZM54.9732 219V214.182H54.8962L53.2792 219H51.9812L50.3642 214.182H50.2872V219H48.5052V211.432H51.1342L52.6302 215.799H52.7072L54.1922 211.432H56.8102V219H54.9732Z" fill="white"/>
</svg>
