<svg width="1534" height="250" viewBox="0 0 1534 250" fill="none" xmlns="http://www.w3.org/2000/svg">
<path d="M183.111 67H162.079L167.586 48.1799L145.734 67H132.436L121.539 48.1799L116.032 67H95L104.315 35H133.783L143.391 52.2662L163.017 35H192.426L183.111 67Z" fill="white"/>
<path d="M264.671 35L261.918 44.4389H214.64L213.996 46.6835H257.7L255.181 55.4317H211.476L210.832 57.5612H258.11L255.356 67H195.366C194.428 67 193.55 66.7698 192.729 66.3094C191.909 65.8489 191.206 65.2158 190.62 64.5252C190.034 63.8345 189.566 63.0288 189.331 62.1655C189.039 61.3022 189.039 60.4964 189.273 59.6906L194.428 42.1942C194.663 41.1583 195.248 40.2374 196.127 39.3165C197.006 38.4532 198.002 37.705 199.174 37.0719C200.287 36.4389 201.517 35.9209 202.806 35.5755C204.095 35.2302 205.266 35 206.438 35H264.671Z" fill="white"/>
<path d="M333.535 47.0288H312.62L309.515 57.5612H283.21L287.018 44.4389H334.238L336.991 35H278.758C277.645 35 276.473 35.2302 275.184 35.5755C273.895 35.9209 272.724 36.4389 271.552 37.0719C270.38 37.705 269.384 38.4532 268.505 39.3165C267.568 40.2374 266.982 41.1583 266.748 42.1942L261.592 59.6906C261.358 60.4964 261.358 61.3022 261.651 62.1655C261.885 63.0288 262.354 63.8345 262.94 64.5252C263.526 65.2158 264.229 65.8489 265.049 66.3094C265.869 66.7698 266.748 67 267.685 67H318.888C319.943 67 321.056 66.7698 322.228 66.2518C323.399 65.7338 324.571 65.1007 325.626 64.295C326.68 63.4892 327.617 62.6259 328.438 61.705C329.258 60.7842 329.785 59.8633 330.019 58.9424L333.535 47.0288Z" fill="white"/>
<path d="M331.856 67L338.828 43.0576C339.062 42.2518 339.531 41.3309 340.351 40.3525C341.171 39.4317 342.108 38.5683 343.163 37.7626C344.218 36.9568 345.389 36.3237 346.619 35.8058C347.791 35.2878 348.963 35 350.076 35H405.146C406.2 35 407.137 35.2878 408.075 35.8058C409.012 36.3237 409.774 36.9568 410.418 37.7626C411.063 38.5683 411.531 39.4317 411.824 40.3525C412.059 41.3309 412.059 42.2518 411.824 43.1727L404.853 67H383.879L386.867 56.7554H355.817L352.829 67H331.856ZM359.391 44.6115L358.629 47.1439H389.796L390.558 44.6115H359.391Z" fill="white"/>
<path d="M56.4225 215H126.121L147.987 137.644H226.08L235.256 105H9.17598L0 137.644H78.2887L56.4225 215Z" fill="white"/>
<path d="M249.405 105L218.363 215H286.89L308.365 138.831H412.425L410.277 146.745H317.151L307.975 179.388H350.731L388.606 215H476.852L435.853 179.388H442.296C445.029 179.388 448.153 178.993 451.667 177.806C455.181 176.619 458.5 175.036 461.624 173.058C464.747 171.079 467.676 168.507 470.214 165.737C472.557 162.968 474.314 160 475.485 156.439L483.49 128.147C484.075 125.773 483.88 123.201 483.099 120.432C482.123 117.662 480.757 115.288 478.804 112.914C476.852 110.737 474.509 108.957 471.776 107.374C469.043 105.791 466.309 105 463.576 105H249.405Z" fill="white"/>
<path d="M728.728 187.302L744.151 132.698C744.932 129.928 744.737 126.763 743.956 123.399C743.175 120.234 741.613 117.266 739.661 114.496C737.708 111.727 735.17 109.55 732.242 107.77C729.118 105.989 725.994 105 722.48 105H538.765C535.251 105 531.346 105.989 527.247 107.77C523.147 109.55 519.242 111.727 515.728 114.496C512.214 117.266 509.09 120.234 506.357 123.399C503.623 126.763 501.671 129.928 500.89 133.094L485.467 187.104C484.686 190.27 484.686 193.435 485.467 196.601C486.247 199.964 487.809 202.932 489.957 205.701C491.909 208.471 494.642 210.647 497.766 212.428C500.89 214.209 504.209 215 507.723 215H691.438C694.952 215 698.662 214.209 702.566 212.428C706.471 210.647 710.376 208.471 713.89 205.701C717.404 202.932 720.723 199.964 723.456 196.799C726.19 193.633 727.947 190.468 728.728 187.302ZM672.696 138.04L660.201 182.158H556.922L569.417 138.04H672.696Z" fill="white"/>
<path d="M734.664 215L765.706 105H854.147L935.95 169.694L954.106 105H1024L992.958 215H904.908L823.105 150.306L804.753 215H734.664ZM884.603 105H936.34L926.578 140.018L884.603 105Z" fill="white"/>
<g filter="url(#filter0_dd)">
<path d="M1234.01 35H1087.67L1159.17 96.0279L1170.51 89.022L1122.35 47.8571H1229.53L1330.72 131.572L1499 35H1347.7L1308.9 59.1068L1319.25 67.5407L1351.24 47.8571H1450.88L1332.01 116.075L1234.01 35Z" fill="white"/>
<path fill-rule="evenodd" clip-rule="evenodd" d="M1301.96 215H1448.26L1374.21 151.285L1361.67 157.669L1413.62 202.143H1306.44L1205.25 118.428L1037 215H1188.43L1215.51 196.84L1205.48 187.895L1184.55 202.143H1085.11L1203.96 133.926L1301.96 215ZM1443.33 213.163H1443.33L1373.95 153.469L1373.95 153.47L1443.33 213.163ZM1305.8 203.98L1205.06 120.642L1205.06 120.642L1305.8 203.98H1305.8ZM1187.89 213.163H1187.89L1212.54 196.633L1205.33 190.204L1205.33 190.205L1212.54 196.633L1187.89 213.163ZM1078.24 203.98L1204.14 131.712L1078.24 203.98H1078.24Z" fill="white"/>
</g>
<defs>
<filter id="filter0_dd" x="1002" y="0" width="532" height="250" filterUnits="userSpaceOnUse" color-interpolation-filters="sRGB">
<feFlood flood-opacity="0" result="BackgroundImageFix"/>
<feColorMatrix in="SourceAlpha" type="matrix" values="0 0 0 0 0 0 0 0 0 0 0 0 0 0 0 0 0 0 127 0"/>
<feOffset/>
<feGaussianBlur stdDeviation="17.5"/>
<feColorMatrix type="matrix" values="0 0 0 0 0 0 0 0 0 1 0 0 0 0 1 0 0 0 0.04 0"/>
<feBlend mode="normal" in2="BackgroundImageFix" result="effect1_dropShadow"/>
<feColorMatrix in="SourceAlpha" type="matrix" values="0 0 0 0 0 0 0 0 0 0 0 0 0 0 0 0 0 0 127 0"/>
<feOffset/>
<feGaussianBlur stdDeviation="5"/>
<feColorMatrix type="matrix" values="0 0 0 0 0 0 0 0 0 1 0 0 0 0 1 0 0 0 0.3 0"/>
<feBlend mode="normal" in2="effect1_dropShadow" result="effect2_dropShadow"/>
<feBlend mode="normal" in="SourceGraphic" in2="effect2_dropShadow" result="shape"/>
</filter>
</defs>
</svg>
