<svg width="61" height="59" viewBox="0 0 61 59" fill="none" xmlns="http://www.w3.org/2000/svg">
<path d="M32.3594 28.5293V46.7051H35.1594V52.0181" stroke="white" stroke-width="2"/>
<path d="M27.8806 28.248V42.5091H25.6406V52.0165" stroke="white" stroke-width="2"/>
<path d="M42.9998 43.6292V37.4774H36.8398V28.5293" stroke="white" stroke-width="2"/>
<path d="M17.8008 43.6279V40.2724H23.4008V27.9688" stroke="white" stroke-width="2"/>
<path d="M46.92 40.2723C54.0338 40.2723 59.8 34.5132 59.8 27.4094C59.8 21.4547 55.7466 16.4455 50.2472 14.9801C49.9016 11.286 46.7888 8.39468 43 8.39468C41.2741 8.39468 39.6881 8.99435 38.4413 9.99599C36.2647 5.09867 31.3516 1.68359 25.64 1.68359C17.9072 1.68359 11.64 7.94356 11.64 15.665C11.64 15.8108 11.6422 15.9556 11.6488 16.0998L11.6553 16.3029C5.65719 16.9889 1 22.0757 1 28.2483C1 34.8889 6.39 40.2723 13.04 40.2723C13.1341 40.2723 13.2259 40.2745 13.32 40.2723H13.88" stroke="white" stroke-width="2"/>
<ellipse cx="17.8" cy="46.4252" rx="2.8" ry="2.79628" stroke="white" stroke-width="2"/>
<ellipse cx="42.9992" cy="46.4252" rx="2.8" ry="2.79628" stroke="white" stroke-width="2"/>
<ellipse cx="25.6398" cy="54.8139" rx="2.8" ry="2.79628" stroke="white" stroke-width="2"/>
<ellipse cx="35.1594" cy="54.8139" rx="2.8" ry="2.79628" stroke="white" stroke-width="2"/>
</svg>
