<svg width="32" height="28" viewBox="0 0 32 28" fill="none" xmlns="http://www.w3.org/2000/svg">
	<path d="M7 15H19" stroke="#4D5558" stroke-width="2" />
	<path d="M14.4453 21.1679L7 26.1315V22V21H6H1V1H31V21H15H14.6972L14.4453 21.1679Z" stroke="#4D5558" stroke-width="2" />
	<path d="M10.0429 11V8.975H8.39292V11H7.08792V5.84H8.39292V7.85H10.0429V5.84H11.3479V11H10.0429ZM12.4276 11V5.84H16.0876V6.8975H13.7326V7.865H15.7276V8.9225H13.7326V9.9425H16.0876V11H12.4276ZM17.0419 11V5.84H18.3469V9.89H20.3944V11H17.0419ZM21.1142 5.84H23.5667C24.0267 5.84 24.3742 5.9075 24.6092 6.0425C24.8442 6.1775 24.9992 6.3675 25.0742 6.6125C25.1542 6.8575 25.1942 7.185 25.1942 7.595C25.1942 7.98 25.1567 8.295 25.0817 8.54C25.0117 8.785 24.8567 8.98 24.6167 9.125C24.3817 9.27 24.0317 9.3425 23.5667 9.3425H22.4192V11H21.1142V5.84ZM23.0267 8.3C23.2917 8.3 23.4817 8.285 23.5967 8.255C23.7117 8.22 23.7867 8.1575 23.8217 8.0675C23.8567 7.9725 23.8742 7.815 23.8742 7.595C23.8742 7.375 23.8567 7.22 23.8217 7.13C23.7867 7.035 23.7117 6.9725 23.5967 6.9425C23.4867 6.9075 23.2967 6.89 23.0267 6.89H22.4192V8.3H23.0267Z" fill="#4D5558" />
</svg>
