<svg width="69" height="52" viewBox="0 0 69 52" fill="none" xmlns="http://www.w3.org/2000/svg">
<path d="M19.2727 7.25H13.1818V1H19.2727V7.25ZM19.2727 7.25V13.5H13.1818V19.75H7.09091V26H1V32.25V38.5V44.75H7.09091V38.5V32.25H13.1818V38.5V44.75H19.2727M19.2727 7.25H25.3636V13.5H31.4545H37.5455H43.6364V7.25H49.7273M19.2727 44.75V51H25.3636H31.4545V44.75H25.3636H19.2727ZM19.2727 44.75V38.5H25.3636H31.4545H37.5455H43.6364H49.7273V44.75M49.7273 44.75H43.6364H37.5455V51H43.6364H49.7273V44.75ZM49.7273 44.75H55.8182V38.5V32.25H61.9091V38.5V44.75H68V38.5V32.25V26H61.9091V19.75H55.8182V13.5H49.7273V7.25M49.7273 7.25H55.8182V1H49.7273V7.25ZM43.6364 26H49.7273V19.75H43.6364V26ZM19.2727 26H25.3636V19.75H19.2727V26Z" stroke="white" stroke-width="1.5"/>
</svg>
