<svg width="38" height="31" viewBox="0 0 38 31" fill="none" xmlns="http://www.w3.org/2000/svg">
<path fill-rule="evenodd" clip-rule="evenodd" d="M29.2239 4.66766L34.2561 0L35.6185 1.43778L3.74727 31L2.38489 29.5622L7.11475 25.175C7.11471 25.175 7.11468 25.175 7.11465 25.175L8.58704 23.8092C8.58707 23.8093 8.58711 23.8093 8.58714 23.8093L11.0899 21.4879C11.0898 21.4879 11.0898 21.4878 11.0898 21.4878L12.5521 20.1314C12.5522 20.1314 12.5522 20.1315 12.5522 20.1315L24.0871 9.43228C24.0871 9.43225 24.087 9.43223 24.087 9.4322L25.5493 8.07581C25.5494 8.07584 25.5494 8.07586 25.5494 8.07589L27.7163 6.06602C27.7163 6.066 27.7162 6.06598 27.7162 6.06595L29.2238 4.66759C29.2238 4.66762 29.2238 4.66764 29.2239 4.66766ZM19.0009 1.70522C22.0006 1.70522 24.8423 2.40381 27.4026 3.65537L25.8363 5.10815C23.7158 4.18265 21.4084 3.67603 19.0009 3.67603C11.5955 3.67603 5.13766 8.46952 2.14879 15.5031C3.30971 18.2334 4.99338 20.6259 7.05228 22.5313L5.59717 23.881C3.26869 21.6979 1.39577 18.9606 0.147522 15.8688L0 15.5033L0.147441 15.1379C3.31956 7.27564 10.5306 1.70522 19.0009 1.70522ZM19.0013 5.64698C20.7779 5.64698 22.4457 6.10717 23.8899 6.91362L22.3473 8.34446C21.3299 7.87808 20.1963 7.6178 19.0013 7.6178C14.6008 7.6178 11.0335 11.1473 11.0335 15.5011C11.0335 16.5032 11.2225 17.4617 11.5672 18.3435L10.0244 19.7746C9.39456 18.4818 9.04159 17.0322 9.04159 15.5011C9.04159 10.0588 13.5007 5.64698 19.0013 5.64698ZM14.1116 24.0878L15.6541 22.6571C16.6718 23.1238 17.8058 23.3843 19.0013 23.3843C23.4018 23.3843 26.9691 19.8549 26.9691 15.5011C26.9691 14.4984 26.78 13.5395 26.435 12.6573L27.9777 11.2263C28.6079 12.5194 28.9611 13.9694 28.9611 15.5011C28.9611 20.9433 24.502 25.3551 19.0013 25.3551C17.2243 25.3551 15.556 24.8947 14.1116 24.0878ZM35.8512 15.4987C34.6904 12.7687 33.0069 10.3763 30.9482 8.47097L32.4033 7.12128C34.7316 9.30437 36.6043 12.0414 37.8525 15.1331L38 15.4985L37.8526 15.8639C34.6804 23.7262 27.4694 29.2966 18.9991 29.2966C15.9997 29.2966 13.1582 28.5982 10.5981 27.3468L12.1644 25.894C14.2847 26.8193 16.5918 27.3258 18.9991 27.3258C26.4045 27.3258 32.8623 22.5323 35.8512 15.4987Z" fill="white"/>
</svg>
