<svg width="70" height="30" viewBox="0 0 70 30" fill="none" xmlns="http://www.w3.org/2000/svg">
<path d="M5.50989 0.755859H0V6.28969H5.50989V0.755859Z" fill="#00AAE8"/>
<path d="M5.37201 29.5864V9.65676H0.15625V29.5864H5.37201ZM40.0392 29.7834V24.8994C39.2745 24.8994 38.6274 24.86 38.1568 24.7813C37.6078 24.7025 37.196 24.5056 36.9215 24.2298C36.647 23.9541 36.4705 23.5603 36.3725 23.0482C36.294 22.5559 36.2548 21.906 36.2548 21.1183V14.1468H40.0392V9.65676H36.2548V1.87788H31.0195V21.1577C31.0195 22.7922 31.1567 24.1708 31.4312 25.2736C31.7057 26.3567 32.1763 27.2429 32.8234 27.9125C33.4705 28.5821 34.3332 29.0547 35.3725 29.3501C36.4313 29.6455 37.7647 29.7834 39.3529 29.7834H40.0392ZM70.0004 29.5864V0.341797H64.7651V29.5864H70.0004ZM25.9802 11.6064C24.5292 10.0309 22.4899 9.2432 19.9016 9.2432C18.6467 9.2432 17.5095 9.49921 16.4702 10.0112C15.4506 10.5233 14.5682 11.2322 13.8819 12.1381L13.5878 12.5123V12.1775V9.65676H8.43088V29.5864H13.627V18.9717V19.7004C13.627 19.5822 13.627 19.4641 13.627 19.3459C13.6859 17.475 14.1369 16.0965 14.9996 15.2103C15.9212 14.265 17.0389 13.7924 18.3134 13.7924C19.8232 13.7924 20.9801 14.265 21.7448 15.1709C22.4899 16.0768 22.8821 17.3569 22.8821 18.9914V19.0308V29.5667H28.1567V18.2628C28.1763 15.4269 27.4312 13.1819 25.9802 11.6064ZM62.0591 19.5822C62.0591 18.1446 61.8042 16.8054 61.314 15.5451C60.8042 14.3044 60.0983 13.2016 59.216 12.2563C58.314 11.311 57.2355 10.5823 55.9806 10.0506C54.7257 9.5189 53.3335 9.26289 51.8237 9.26289C50.3923 9.26289 49.0393 9.5386 47.7844 10.0703C46.5295 10.6217 45.4314 11.3504 44.5099 12.276C43.5883 13.2016 42.8432 14.3044 42.3137 15.5648C41.7647 16.8251 41.5098 18.184 41.5098 19.6216C41.5098 21.0592 41.7647 22.4181 42.2745 23.6784C42.7843 24.9388 43.5098 26.0416 44.4118 26.9672C45.3138 27.8928 46.4315 28.6412 47.7256 29.1729C49.0197 29.7243 50.4511 30 51.9806 30C56.412 30 59.1571 27.9716 60.8042 26.081L57.0395 23.2058C56.2551 24.1511 54.3727 25.4311 52.0198 25.4311C50.5492 25.4311 49.3335 25.0964 48.4119 24.4071C47.4903 23.7375 46.8628 22.7922 46.5295 21.6303L46.4707 21.4531H62.0591V19.5822ZM46.5099 17.7507C46.5099 16.2934 48.1766 13.753 51.7649 13.7333C55.3532 13.7333 57.0395 16.2737 57.0395 17.731L46.5099 17.7507Z" fill="white"/>
</svg>
