<svg width="67" height="70" viewBox="0 0 67 70" fill="none" xmlns="http://www.w3.org/2000/svg">
<path d="M1 10.2231C15.4521 1.59504 28.2216 1.03306 33.5 1C38.7784 1.03306 51.5479 1.59504 66 10.2231" stroke="white" stroke-width="2"/>
<path d="M29.075 31.6162C31.5371 29.752 31.0448 24.3555 33.3099 24.3555C35.5749 24.3555 35.0826 29.752 37.5447 31.6162C40.0068 33.4805 41.2871 34.5598 41.1886 36.7184C41.0902 38.877 39.7115 40.3487 33.3099 40.3487C26.9082 40.3487 25.5296 38.877 25.4311 36.7184C25.3326 34.5598 26.6129 33.4805 29.075 31.6162Z" stroke="white" stroke-width="2"/>
<path d="M11.3398 56.0488C13.5065 61.3472 16.4611 60.8566 18.6277 63.3096C20.7944 65.7625 22.0747 69.0004 33.4989 69.0004C44.9232 69.0004 46.2035 65.7625 48.3701 63.3096C50.5368 60.8566 53.4914 61.3472 55.658 56.0488" stroke="white" stroke-width="2"/>
<path d="M20.9922 58.7962C21.7473 58.698 23.0672 57.9793 23.4545 56.0489C23.8482 54.0865 22.371 53.4978 22.6666 52.026C23.5945 47.4069 23.8484 45.7465 25.8181 45.7465C28.3393 45.668 31.0378 45.7138 33.106 45.7465C35.1742 45.7138 37.8727 45.668 40.3939 45.7465C42.3636 45.7465 42.6175 47.4069 43.5454 52.026C43.8411 53.4978 42.3638 54.0865 42.7575 56.0489C43.1449 57.9793 44.4647 58.698 45.2198 58.7962" stroke="white" stroke-width="2"/>
<path d="M15.2812 22.9824C15.4454 28.9349 15.7737 41.7034 15.7737 45.1572C15.7737 49.4744 17.5464 51.633 20.2055 51.9273" stroke="white" stroke-width="2"/>
<path d="M51.2266 22.8848C51.0624 28.8373 50.7341 41.6057 50.7341 45.0595C50.7341 49.3767 48.9614 51.5353 46.3023 51.8297" stroke="white" stroke-width="2"/>
</svg>
