<svg width="58" height="58" viewBox="0 0 58 58" fill="none" xmlns="http://www.w3.org/2000/svg">
<circle cx="29" cy="29" r="28" stroke="white" stroke-width="2"/>
<circle cx="29" cy="29" r="22" stroke="white" stroke-width="2"/>
<path d="M43 30.526C41.8745 29.957 40.6013 29.6364 39.253 29.6364C34.6707 29.6364 30.9559 33.3402 30.9559 37.9091C30.9559 39.2251 31.2642 40.4694 31.8125 41.5741C32.0671 42.0868 31.8169 42.7385 31.2502 42.8277C30.5306 42.9411 29.7928 43 29.0412 43C21.2865 43 15 36.732 15 29C15 21.268 21.2865 15 29.0412 15C35.3457 15 40.6797 19.1428 42.4543 24.8469" stroke="white" stroke-width="2"/>
<circle cx="39" cy="38" r="3" stroke="white" stroke-width="2"/>
</svg>
