<svg width="136" height="29" viewBox="0 0 136 29" fill="none" xmlns="http://www.w3.org/2000/svg">
<path d="M125.641 9.26075L128.366 16.6904H122.832L125.641 9.26075ZM122.723 6.36778L116.444 22.2255H120.878L121.871 19.4232H129.302L130.241 22.2255H135.055L128.729 6.36573L122.723 6.36778ZM110.117 22.2314H114.615V6.36291L110.116 6.36188L110.117 22.2314ZM78.8889 6.36188L75.1359 18.9389L71.5407 6.36291L66.6871 6.36188L71.8217 22.2314H78.3022L83.4782 6.36188H78.8889ZM97.0717 9.81737H99.0053C101.81 9.81737 103.624 11.0726 103.624 14.3299C103.624 17.5878 101.81 18.8433 99.0053 18.8433H97.0717V9.81737ZM92.6112 6.36188V22.2314H99.9036C103.789 22.2314 105.058 21.5876 106.43 20.1436C107.399 19.1295 108.026 16.9039 108.026 14.4714C108.026 12.2401 107.495 10.251 106.57 9.01166C104.905 6.79548 102.504 6.36188 98.922 6.36188H92.6112ZM50 6.33984V22.2314H54.5364V10.1649L58.0513 10.1659C59.2152 10.1659 60.0448 10.4552 60.6053 11.0518C61.3162 11.8065 61.6064 13.0248 61.6064 15.2535V22.2314H66.0022V13.4512C66.0022 7.18475 61.9951 6.33984 58.0745 6.33984H50ZM85.3715 6.36188L85.3733 22.2314H89.8695V6.36188H85.3715Z" fill="white"/>
<path d="M4.28662 12.3856C4.28662 12.3856 8.08002 6.74829 15.6542 6.16508V4.11988C7.26484 4.7985 0 11.9552 0 11.9552C0 11.9552 4.11468 23.9357 15.6542 25.0328V22.859C7.18595 21.7859 4.28662 12.3856 4.28662 12.3856ZM15.6542 18.5356V20.5266C9.25408 19.3772 7.47757 12.6764 7.47757 12.6764C7.47757 12.6764 10.5505 9.24765 15.6542 8.69162V10.8762C15.6503 10.8762 15.6476 10.875 15.6444 10.875C12.9657 10.5512 10.8732 13.0717 10.8732 13.0717C10.8732 13.0717 12.046 17.3145 15.6542 18.5356ZM15.6542 0.347656V4.11988C15.9004 4.10087 16.1467 4.08474 16.3943 4.07625C25.9321 3.75248 32.1466 11.9552 32.1466 11.9552C32.1466 11.9552 25.0091 20.6969 17.573 20.6969C16.8914 20.6969 16.2534 20.6333 15.6542 20.5263V22.859C16.1842 22.9276 16.718 22.9623 17.2523 22.9629C24.1721 22.9629 29.1763 19.4034 34.0219 15.1906C34.8253 15.8386 38.1143 17.4152 38.7905 18.1052C34.1832 21.9905 23.4458 25.1223 17.3584 25.1223C16.7716 25.1223 16.2081 25.0865 15.6542 25.0327V28.3105H41.9558V0.347656H15.6542ZM15.6542 8.69145V6.16525C15.8979 6.14811 16.1435 6.13486 16.3943 6.12688C23.2529 5.9099 27.7526 12.0633 27.7526 12.0633C27.7526 12.0633 22.8925 18.8618 17.6815 18.8618C16.9316 18.8618 16.2592 18.7404 15.654 18.5354V10.876C18.3241 11.201 18.8615 12.389 20.4667 15.0843L24.0371 12.0521C24.0371 12.0521 21.4309 8.60944 17.0376 8.60944C16.5599 8.60927 16.1029 8.64306 15.6542 8.69145Z" fill="#77B900"/>
</svg>
