<svg width="79" height="47" viewBox="0 0 79 47" fill="none" xmlns="http://www.w3.org/2000/svg">
<path d="M1 42.5385L10.625 1L39.5 4L68.375 1L78 42.5385L66.45 46L57.595 33.3077H39.5H21.405L12.55 46L1 42.5385Z" stroke="white" stroke-width="1.5"/>
<path d="M21.7931 11.3262V10.5762H21.0431V11.3262H21.7931ZM24.8731 11.3262H25.6231V10.5762H24.8731V11.3262ZM21.7931 17.4805V18.2305H22.5431V17.4805H21.7931ZM15.6328 17.4805V16.7305H14.8828L14.8828 17.4805H15.6328ZM15.6328 20.5574H14.8828L14.8828 21.3074H15.6328V20.5574ZM21.7931 20.5574H22.5431V19.8074H21.7931V20.5574ZM21.7931 26.7108H21.0431V27.4608H21.7931V26.7108ZM24.8731 26.7108V27.4608H25.6231V26.7108H24.8731ZM24.8731 20.5574V19.8074H24.1231V20.5574H24.8731ZM31.0328 20.5574V21.3074H31.7828V20.5574H31.0328ZM31.0328 17.4805H31.7828V16.7305H31.0328V17.4805ZM24.8731 17.4805H24.1231V18.2305H24.8731V17.4805ZM21.7931 12.0762H24.8731V10.5762H21.7931V12.0762ZM22.5431 17.4805V11.3262H21.0431V17.4805H22.5431ZM15.6328 18.2305H21.7931V16.7305H15.6328V18.2305ZM16.3828 20.5574L16.3828 17.4805H14.8828L14.8828 20.5574H16.3828ZM21.7931 19.8074H15.6328V21.3074H21.7931V19.8074ZM22.5431 26.7108V20.5574H21.0431V26.7108H22.5431ZM24.8731 25.9608H21.7931V27.4608H24.8731V25.9608ZM24.1231 20.5574V26.7108H25.6231V20.5574H24.1231ZM31.0328 19.8074H24.8731V21.3074H31.0328V19.8074ZM30.2828 17.4805V20.5574H31.7828V17.4805H30.2828ZM24.8731 18.2305H31.0328V16.7305H24.8731V18.2305ZM24.1231 11.3262V17.4805H25.6231V11.3262H24.1231Z" fill="white"/>
<ellipse cx="54.8998" cy="12.8663" rx="2.31" ry="2.30769" stroke="white" stroke-width="1.5"/>
<ellipse cx="54.8998" cy="25.1749" rx="2.31" ry="2.30769" stroke="white" stroke-width="1.5"/>
<ellipse cx="61.0611" cy="19.0206" rx="2.30769" ry="2.31" transform="rotate(90 61.0611 19.0206)" stroke="white" stroke-width="1.5"/>
<ellipse cx="48.7408" cy="19.0206" rx="2.30769" ry="2.31" transform="rotate(90 48.7408 19.0206)" stroke="white" stroke-width="1.5"/>
</svg>
