<svg width="67" height="55" viewBox="0 0 67 55" fill="none" xmlns="http://www.w3.org/2000/svg">
<path d="M33.7188 16.875V22.2373" stroke="white" stroke-width="2"/>
<path d="M33.7188 34.748V40.1104" stroke="white" stroke-width="2"/>
<path d="M27.4531 28.4941L22.0837 28.4941" stroke="white" stroke-width="2"/>
<path d="M45.3516 28.4941L39.9821 28.4941" stroke="white" stroke-width="2"/>
<path d="M1.5 31.142C8.53133 17.5631 20.242 8.67188 33.5 8.67188C46.758 8.67188 58.4687 17.5631 65.5 31.142C58.4687 44.7209 46.758 53.6122 33.5 53.6122C20.242 53.6122 8.53133 44.7209 1.5 31.142Z" stroke="white" stroke-width="2"/>
<path d="M4.18359 14.1937C10.6726 6.63258 21.4801 1.68164 33.7156 1.68164C45.951 1.68164 56.7585 6.63258 63.2475 14.1937" stroke="white" stroke-width="2"/>
<ellipse cx="33.2682" cy="28.4919" rx="20.1354" ry="19.6618" stroke="white" stroke-width="2"/>
<rect x="32.8203" y="27.5977" width="1.78982" height="1.78744" stroke="white" stroke-width="2"/>
</svg>
