<svg width="78" height="67" viewBox="0 0 78 67" fill="none" xmlns="http://www.w3.org/2000/svg">
<path d="M57.9402 59.1871C52.554 56.0838 51.0631 53.1691 51.4478 43.8591C51.8325 34.5491 49.9089 21.36 56.8339 17.0929C62.8839 13.365 70.4839 7.60938 70.4839 7.60938" stroke="white" stroke-width="2"/>
<path d="M7.51231 31.8477C7.98726 39.5398 4.17361 47.0915 7.79907 51.9834" stroke="white" stroke-width="2"/>
<path d="M20.6687 17.869C14.1284 17.869 12.9742 13.6019 9.51172 15.5415C6.04921 17.481 7.51429 26.339 7.51429 31.8475C7.51429 37.9068 4.2795 41.9198 2.58674 46.1869C0.663154 51.0359 0.151635 57.3296 2.97143 58.9882C7.58816 61.7036 10.2812 53.9452 20.6687 53.1694C24.1003 52.9131 44.0889 53.7566 52.2159 56.6607C54.1845 57.34 56.0947 58.2029 57.939 59.1874C65.0607 62.9892 71.0101 67.9679 73.7604 65.1948C75.7221 63.2168 76.0687 62.0915 74.5298 58.9882C72.991 55.8848 69.1437 39.2044 67.9896 35.7132C66.8354 32.2219 67.9896 30.6703 68.3743 27.179C68.759 23.6878 80.3007 5.45549 76.0687 1.96424C71.8368 -1.527 66.8354 5.06757 51.0618 12.0501C35.2881 19.0325 27.209 17.869 20.6687 17.869Z" stroke="white" stroke-width="2"/>
</svg>
