<svg width="57" height="48" viewBox="0 0 57 48" fill="none" xmlns="http://www.w3.org/2000/svg">
<path d="M0 1H57M9.19355 8.36C9.19355 19.5382 18.249 28.6 29.4194 28.6C40.5898 28.6 49.6452 19.5382 49.6452 8.36M47.7855 31.36C42.7522 35.3901 36.3672 37.8 29.4196 37.8C22.4721 37.8 16.0871 35.3901 11.0538 31.36M4.41003 37.8C11.1478 43.5376 19.88 47 29.4204 47C38.9607 47 47.693 43.5376 54.4307 37.8M33.0968 15.72C33.0968 13.6876 31.4503 12.04 29.4194 12.04C27.3884 12.04 25.7419 13.6876 25.7419 15.72C25.7419 17.7524 27.3884 19.4 29.4194 19.4C31.4503 19.4 33.0968 17.7524 33.0968 15.72Z" stroke="white" stroke-width="2"/>
</svg>
