<svg width="70" height="59" viewBox="0 0 70 59" fill="none" xmlns="http://www.w3.org/2000/svg">
<path d="M63.5 12.7449C61.1623 13.4994 58.1666 14.1553 54.6842 14.6766V49.987V57.6112C63.3483 56.3143 69 54.184 69 51.776V8.84132C69 4.8893 53.7777 1.68555 35 1.68555C16.2223 1.68555 1 4.8893 1 8.84132V51.776C1 54.184 6.65174 56.3143 15.3158 57.6112V49.987V14.6766C11.8334 14.1553 8.8377 13.4994 6.5 12.7449M21.5 49.2528C25.6383 48.8756 30.2032 48.6665 35 48.6665C39.7968 48.6665 44.3617 48.8756 48.5 49.2528" stroke="white" stroke-width="2"/>
<path d="M35 17.6641C29.0571 17.6641 23.8571 23.3232 22 26.1528C23.8571 28.9824 29.0571 34.6415 35 34.6415C40.9429 34.6415 46.1429 28.9824 48 26.1528C46.1429 23.3232 40.9429 17.6641 35 17.6641Z" stroke="white" stroke-width="2"/>
<ellipse cx="35" cy="26.6523" rx="3" ry="2.99602" stroke="white" stroke-width="2"/>
</svg>
