<svg width="67" height="67" viewBox="0 0 67 67" fill="none" xmlns="http://www.w3.org/2000/svg">
<path d="M43.5 33.5C43.5 39.0228 39.0228 43.5 33.5 43.5C27.9772 43.5 23.5 39.0228 23.5 33.5C23.5 27.9772 27.9772 23.5 33.5 23.5C36.2086 23.5 38.6656 24.5768 40.4664 26.3258" stroke="white" stroke-width="2"/>
<path d="M25.9564 13.6279C28.3007 12.7375 30.8434 12.25 33.5 12.25C45.236 12.25 54.75 21.7639 54.75 33.5C54.75 45.236 45.236 54.75 33.5 54.75C21.7639 54.75 12.25 45.236 12.25 33.5C12.25 27.8906 14.4234 22.7889 17.9741 18.991" stroke="white" stroke-width="2"/>
<path d="M13.1875 58.8718C5.75749 52.9157 1 43.7634 1 33.5C1 15.5507 15.5507 1 33.5 1C51.4493 1 66 15.5507 66 33.5C66 51.4493 51.4493 66 33.5 66C30.2733 66 27.1565 65.5298 24.2143 64.6541" stroke="white" stroke-width="2"/>
</svg>
