<svg xmlns="http://www.w3.org/2000/svg" viewBox="0 0 366 211" width="366" height="211">
	<style>
		tspan { white-space:pre }
		.shp0 { fill: #ffffff } 
		.shp1 { fill: #ffffff;stroke: #ffffff;stroke-width: 2 } 
	</style>
	<path id="Layer" class="shp0" d="M131.04 25L115.52 25L119.58 10.3L103.45 25L93.63 25L85.59 10.3L81.53 25L66 25L72.88 0L94.63 0L101.72 13.49L116.21 0L137.92 0L131.04 25Z" />
	<path id="Layer" class="shp0" d="M191.25 0L189.21 7.37L154.31 7.37L153.84 9.13L186.1 9.13L184.24 15.96L151.98 15.96L151.5 17.63L186.4 17.63L184.37 25L140.09 25C139.4 25 138.75 24.82 138.14 24.46C137.53 24.1 137.02 23.61 136.58 23.07C136.15 22.53 135.81 21.9 135.63 21.22C135.42 20.55 135.42 19.92 135.59 19.29L139.4 5.62C139.57 4.81 140 4.09 140.65 3.37C141.3 2.7 142.03 2.11 142.9 1.62C143.72 1.12 144.63 0.72 145.58 0.45C146.53 0.18 147.4 0 148.26 0L191.25 0Z" />
	<path id="Layer" class="shp0" d="M242.08 9.4L226.64 9.4L224.35 17.63L204.93 17.63L207.74 7.37L242.6 7.37L244.63 0L201.65 0C200.82 0 199.96 0.18 199.01 0.45C198.06 0.72 197.19 1.12 196.32 1.62C195.46 2.11 194.72 2.7 194.08 3.37C193.38 4.09 192.95 4.81 192.78 5.62L188.97 19.29C188.8 19.92 188.8 20.55 189.02 21.22C189.19 21.9 189.54 22.53 189.97 23.07C190.4 23.61 190.92 24.1 191.53 24.46C192.13 24.82 192.78 25 193.47 25L231.27 25C232.05 25 232.87 24.82 233.73 24.42C234.6 24.01 235.46 23.52 236.24 22.89C237.02 22.26 237.71 21.58 238.32 20.86C238.92 20.14 239.31 19.42 239.48 18.7L242.08 9.4Z" />
	<path id="Layer" fill-rule="evenodd" class="shp0" d="M240.84 25L245.99 6.29C246.16 5.67 246.5 4.95 247.11 4.18C247.72 3.46 248.41 2.79 249.19 2.16C249.97 1.53 250.83 1.03 251.74 0.63C252.6 0.22 253.47 0 254.29 0L294.94 0C295.72 0 296.41 0.22 297.1 0.63C297.79 1.03 298.36 1.53 298.83 2.16C299.31 2.79 299.65 3.46 299.87 4.18C300.04 4.95 300.04 5.67 299.87 6.38L294.72 25L279.24 25L281.45 17L258.53 17L256.32 25L240.84 25ZM261.17 7.51L260.6 9.49L283.61 9.49L284.17 7.51L261.17 7.51Z" />
	<g id="Layer">
		<path id="Layer" class="shp1" d="M59.59 89L56.77 89L58.96 90.78L106.29 129.2L106.83 129.64L107.43 129.29L113.16 125.92L114.41 125.19L113.29 124.28L79.98 97.2L156.83 97.2L228.03 153.23L228.55 153.64L229.13 153.31L341.48 90.87L344.86 89L341 89L240.92 89L240.65 89L240.41 89.14L214.75 104.31L213.48 105.06L214.64 105.96L219.87 110L220.4 110.42L220.98 110.08L242.99 97.2L312.77 97.2L229.39 143.77L160.06 89.21L159.79 89L159.44 89L59.59 89Z" />
		<path id="Layer" class="shp1" d="M308.41 210L311.21 210L309.05 208.23L259.82 167.94L259.26 167.48L258.64 167.87L252.89 171.59L251.73 172.34L252.8 173.21L288.03 201.8L211.18 201.8L139.98 145.77L139.46 145.37L138.88 145.68L24.52 208.12L25 210L127.18 210L127.47 210L127.72 209.84L145.21 198.69L146.35 197.96L145.32 197.08L140.2 192.74L139.63 192.26L139.01 192.67L124.9 201.8L53.3 201.8L138.61 155.22L207.94 209.79L208.22 210L208.56 210L308.41 210Z" />
	</g>
	<path id="Layer" class="shp0" d="M20.17 78L45.08 78L52.89 47.76L80.81 47.76L84.09 35L3.28 35L0 47.76L27.98 47.76L20.17 78Z" />
	<path id="Layer" class="shp0" d="M89.14 35L78.05 78L102.54 78L110.22 48.22L147.41 48.22L146.64 51.32L113.36 51.32L110.08 64.08L125.36 64.08L138.9 78L170.44 78L155.78 64.08L158.09 64.08C159.06 64.08 160.18 63.92 161.44 63.46C162.69 63 163.88 62.38 164.99 61.6C166.11 60.83 167.16 59.83 168.06 58.74C168.9 57.66 169.53 56.5 169.95 55.11L172.81 44.05C173.02 43.12 172.95 42.12 172.67 41.03C172.32 39.95 171.83 39.02 171.13 38.09C170.44 37.24 169.6 36.55 168.62 35.93C167.65 35.31 166.67 35 165.69 35L89.14 35Z" />
	<path id="Layer" fill-rule="evenodd" class="shp0" d="M258.58 70.88C257.6 72.12 256.42 73.28 255.16 74.37C253.9 75.45 252.51 76.3 251.11 76.99C249.72 77.69 248.39 78 247.13 78L181.47 78C180.22 78 179.03 77.69 177.91 76.99C176.8 76.3 175.82 75.45 175.12 74.37C174.35 73.28 173.79 72.12 173.52 70.81C173.24 69.57 173.24 68.33 173.52 67.1L179.03 45.98C179.31 44.74 180.01 43.51 180.98 42.19C181.96 40.95 183.08 39.8 184.33 38.71C185.59 37.63 186.98 36.78 188.45 36.08C189.91 35.39 191.31 35 192.57 35L258.23 35C259.49 35 260.6 35.39 261.72 36.08C262.77 36.78 263.67 37.63 264.37 38.71C265.07 39.8 265.63 40.95 265.91 42.19C266.19 43.51 266.25 44.74 265.98 45.83L260.46 67.17C260.18 68.41 259.56 69.65 258.58 70.88ZM203.52 47.92L199.06 65.16L235.97 65.16L240.44 47.92L203.52 47.92Z" />
	<path id="Layer" fill-rule="evenodd" class="shp0" d="M262.58 78L273.68 35L305.29 35L334.53 60.29L341.02 35L366 35L354.9 78L323.43 78L294.2 52.71L287.64 78L262.58 78ZM316.18 35L334.67 35L331.18 48.69L316.18 35Z" />
</svg>