<svg xmlns="http://www.w3.org/2000/svg" viewBox="0 0 1500 250" width="1500" height="250">
	<style>
		tspan { white-space:pre }
		.shp0 { fill: #ffffff } 
	</style>
	<path id="Layer" class="shp0" d="M183.11 67L162.08 67L167.59 48.18L145.73 67L132.44 67L121.54 48.18L116.03 67L95 67L104.31 35L133.78 35L143.39 52.27L163.02 35L192.43 35L183.11 67Z" />
	<path id="Layer" class="shp0" d="M264.67 35L261.92 44.44L214.64 44.44L214 46.68L257.7 46.68L255.18 55.43L211.48 55.43L210.83 57.56L258.11 57.56L255.36 67L195.37 67C194.43 67 193.55 66.77 192.73 66.31C191.91 65.85 191.21 65.22 190.62 64.53C190.03 63.83 189.57 63.03 189.33 62.17C189.04 61.3 189.04 60.5 189.27 59.69L194.43 42.19C194.66 41.16 195.25 40.24 196.13 39.32C197.01 38.45 198 37.7 199.17 37.07C200.29 36.44 201.52 35.92 202.81 35.58C204.09 35.23 205.27 35 206.44 35L264.67 35Z" />
	<path id="Layer" class="shp0" d="M333.54 47.03L312.62 47.03L309.51 57.56L283.21 57.56L287.02 44.44L334.24 44.44L336.99 35L278.76 35C277.64 35 276.47 35.23 275.18 35.58C273.89 35.92 272.72 36.44 271.55 37.07C270.38 37.7 269.38 38.45 268.5 39.32C267.57 40.24 266.98 41.16 266.75 42.19L261.59 59.69C261.36 60.5 261.36 61.3 261.65 62.17C261.88 63.03 262.35 63.83 262.94 64.53C263.53 65.22 264.23 65.85 265.05 66.31C265.87 66.77 266.75 67 267.69 67L318.89 67C319.94 67 321.06 66.77 322.23 66.25C323.4 65.73 324.57 65.1 325.63 64.3C326.68 63.49 327.62 62.63 328.44 61.7C329.26 60.78 329.79 59.86 330.02 58.94L333.54 47.03Z" />
	<path id="Layer" fill-rule="evenodd" class="shp0" d="M331.86 67L338.83 43.06C339.06 42.25 339.53 41.33 340.35 40.35C341.17 39.43 342.11 38.57 343.16 37.76C344.22 36.96 345.39 36.32 346.62 35.81C347.79 35.29 348.96 35 350.08 35L405.15 35C406.2 35 407.14 35.29 408.07 35.81C409.01 36.32 409.77 36.96 410.42 37.76C411.06 38.57 411.53 39.43 411.82 40.35C412.06 41.33 412.06 42.25 411.82 43.17L404.85 67L383.88 67L386.87 56.76L355.82 56.76L352.83 67L331.86 67ZM359.39 44.61L358.63 47.14L389.8 47.14L390.56 44.61L359.39 44.61Z" />
	<path id="Layer" class="shp0" d="M56.42 215L126.12 215L147.99 137.64L226.08 137.64L235.26 105L9.18 105L0 137.64L78.29 137.64L56.42 215Z" />
	<path id="Layer" class="shp0" d="M249.41 105L218.36 215L286.89 215L308.37 138.83L412.43 138.83L410.28 146.75L317.15 146.75L307.98 179.39L350.73 179.39L388.61 215L476.85 215L435.85 179.39L442.3 179.39C445.03 179.39 448.15 178.99 451.67 177.81C455.18 176.62 458.5 175.04 461.62 173.06C464.75 171.08 467.68 168.51 470.21 165.74C472.56 162.97 474.31 160 475.49 156.44L483.49 128.15C484.07 125.77 483.88 123.2 483.1 120.43C482.12 117.66 480.76 115.29 478.8 112.91C476.85 110.74 474.51 108.96 471.78 107.37C469.04 105.79 466.31 105 463.58 105L249.41 105Z" />
	<path id="Layer" fill-rule="evenodd" class="shp0" d="M723.46 196.8C720.72 199.96 717.4 202.93 713.89 205.7C710.38 208.47 706.47 210.65 702.57 212.43C698.66 214.21 694.95 215 691.44 215L507.72 215C504.21 215 500.89 214.21 497.77 212.43C494.64 210.65 491.91 208.47 489.96 205.7C487.81 202.93 486.25 199.96 485.47 196.6C484.69 193.44 484.69 190.27 485.47 187.1L500.89 133.09C501.67 129.93 503.62 126.76 506.36 123.4C509.09 120.23 512.21 117.27 515.73 114.5C519.24 111.73 523.15 109.55 527.25 107.77C531.35 105.99 535.25 105 538.76 105L722.48 105C725.99 105 729.12 105.99 732.24 107.77C735.17 109.55 737.71 111.73 739.66 114.5C741.61 117.27 743.17 120.23 743.96 123.4C744.74 126.76 744.93 129.93 744.15 132.7L728.73 187.3C727.95 190.47 726.19 193.63 723.46 196.8ZM569.42 138.04L556.92 182.16L660.2 182.16L672.7 138.04L569.42 138.04Z" />
	<path id="Layer" fill-rule="evenodd" class="shp0" d="M734.66 215L765.71 105L854.15 105L935.95 169.69L954.11 105L1024 105L992.96 215L904.91 215L823.11 150.31L804.75 215L734.66 215ZM884.6 105L936.34 105L926.58 140.02L884.6 105Z" />
	<g id="Layer">
		<path id="Layer" class="shp0" d="M1234.01 35L1087.67 35L1159.17 96.03L1170.51 89.02L1122.35 47.86L1229.53 47.86L1330.72 131.57L1499 35L1347.7 35L1308.9 59.11L1319.25 67.54L1351.24 47.86L1450.88 47.86L1332.01 116.08L1234.01 35Z" />
		<path id="Layer" fill-rule="evenodd" class="shp0" d="M1203.96 133.93L1085.11 202.14L1184.55 202.14L1205.48 187.9L1215.51 196.84L1188.43 215L1037 215L1205.25 118.43L1306.44 202.14L1413.62 202.14L1361.67 157.67L1374.21 151.28L1448.26 215L1301.96 215L1203.96 133.93ZM1443.33 213.16L1373.95 153.47L1373.95 153.47L1443.33 213.16ZM1205.33 190.2L1205.33 190.21L1212.54 196.63L1205.33 190.2ZM1305.8 203.98L1205.06 120.64L1205.06 120.64L1305.8 203.98ZM1078.24 203.98L1204.14 131.71L1078.24 203.98Z" />
	</g>
</svg>