<svg xmlns="http://www.w3.org/2000/svg" viewBox="0 0 164 20" width="164" height="20">
	<style>
		tspan { white-space:pre }
		.shp0 { fill: #ffffff } 
	</style>
	<path id="Layer" class="shp0" d="M20.34 3.56L18.01 3.56L18.62 1.46L16.19 3.56L14.71 3.56L13.5 1.46L12.89 3.56L10.55 3.56L11.59 0L14.86 0L15.93 1.92L18.11 0L21.38 0L20.34 3.56Z" />
	<path id="Layer" class="shp0" d="M29.41 0L29.1 1.05L23.85 1.05L23.78 1.3L28.63 1.3L28.35 2.27L23.5 2.27L23.42 2.51L28.68 2.51L28.37 3.56L21.71 3.56C21.6 3.56 21.5 3.53 21.41 3.48C21.32 3.43 21.24 3.36 21.18 3.28C21.11 3.2 21.06 3.11 21.04 3.02C21 2.92 21 2.83 21.03 2.74L21.6 0.8C21.63 0.68 21.69 0.58 21.79 0.48C21.89 0.38 22 0.3 22.13 0.23C22.25 0.16 22.39 0.1 22.53 0.06C22.68 0.03 22.81 0 22.94 0L29.41 0Z" />
	<path id="Layer" class="shp0" d="M37.06 1.34L34.73 1.34L34.39 2.51L31.47 2.51L31.89 1.05L37.14 1.05L37.44 0L30.97 0C30.85 0 30.72 0.03 30.58 0.06C30.43 0.1 30.3 0.16 30.17 0.23C30.04 0.3 29.93 0.38 29.83 0.48C29.73 0.58 29.66 0.68 29.64 0.8L29.07 2.74C29.04 2.83 29.04 2.92 29.07 3.02C29.1 3.11 29.15 3.2 29.21 3.28C29.28 3.36 29.36 3.43 29.45 3.48C29.54 3.53 29.64 3.56 29.74 3.56L35.43 3.56C35.55 3.56 35.67 3.53 35.8 3.47C35.93 3.41 36.06 3.34 36.18 3.26C36.3 3.17 36.4 3.07 36.49 2.97C36.58 2.86 36.64 2.76 36.67 2.66L37.06 1.34Z" />
	<path id="Layer" fill-rule="evenodd" class="shp0" d="M36.87 3.56L37.65 0.9C37.67 0.81 37.72 0.7 37.82 0.59C37.91 0.49 38.01 0.4 38.13 0.31C38.25 0.22 38.38 0.15 38.51 0.09C38.64 0.03 38.77 0 38.9 0L45.02 0C45.13 0 45.24 0.03 45.34 0.09C45.44 0.15 45.53 0.22 45.6 0.31C45.67 0.4 45.72 0.49 45.76 0.59C45.78 0.7 45.78 0.81 45.76 0.91L44.98 3.56L42.65 3.56L42.98 2.42L39.53 2.42L39.2 3.56L36.87 3.56ZM39.93 1.07L39.85 1.35L43.31 1.35L43.39 1.07L39.93 1.07Z" />
	<path id="Layer" class="shp0" d="M6.27 20L14.01 20L16.44 11.4L25.12 11.4L26.14 7.78L1.02 7.78L0 11.4L8.7 11.4L6.27 20Z" />
	<path id="Layer" class="shp0" d="M27.71 7.78L24.26 20L31.88 20L34.26 11.54L45.83 11.54L45.59 12.42L35.24 12.42L34.22 16.04L38.97 16.04L43.18 20L52.98 20L48.43 16.04L49.14 16.04C49.45 16.04 49.79 16 50.19 15.87C50.58 15.73 50.94 15.56 51.29 15.34C51.64 15.12 51.96 14.83 52.25 14.53C52.51 14.22 52.7 13.89 52.83 13.49L53.72 10.35C53.79 10.09 53.76 9.8 53.68 9.49C53.57 9.18 53.42 8.92 53.2 8.66C52.98 8.41 52.72 8.22 52.42 8.04C52.12 7.87 51.81 7.78 51.51 7.78L27.71 7.78Z" />
	<path id="Layer" fill-rule="evenodd" class="shp0" d="M80.38 17.98C80.08 18.33 79.71 18.66 79.32 18.97C78.93 19.27 78.5 19.52 78.06 19.71C77.63 19.91 77.22 20 76.83 20L56.41 20C56.02 20 55.65 19.91 55.31 19.71C54.96 19.52 54.66 19.27 54.44 18.97C54.2 18.66 54.03 18.33 53.94 17.96C53.85 17.6 53.85 17.25 53.94 16.9L55.65 10.9C55.74 10.55 55.96 10.2 56.26 9.82C56.57 9.47 56.91 9.14 57.3 8.83C57.69 8.52 58.13 8.28 58.58 8.09C59.04 7.89 59.47 7.78 59.86 7.78L80.28 7.78C80.67 7.78 81.01 7.89 81.36 8.09C81.69 8.28 81.97 8.52 82.18 8.83C82.4 9.14 82.58 9.47 82.66 9.82C82.75 10.2 82.77 10.55 82.68 10.85L80.97 16.92C80.88 17.27 80.69 17.63 80.38 17.98ZM63.27 11.45L61.88 16.35L73.36 16.35L74.74 11.45L63.27 11.45Z" />
	<path id="Layer" fill-rule="evenodd" class="shp0" d="M81.63 20L85.08 7.78L94.91 7.78L103.99 14.97L106.01 7.78L113.78 7.78L110.33 20L100.55 20L91.46 12.81L89.42 20L81.63 20ZM98.29 7.78L104.04 7.78L102.95 11.67L98.29 7.78Z" />
	<g id="Layer">
		<path id="Layer" class="shp0" d="M134.89 0L118.63 0L126.58 6.78L127.83 6L122.48 1.43L134.39 1.43L145.64 10.73L164.33 0L147.52 0L143.21 2.68L144.36 3.62L147.92 1.43L158.99 1.43L145.78 9.01L134.89 0Z" />
		<path id="Layer" fill-rule="evenodd" class="shp0" d="M131.55 10.99L118.35 18.57L129.4 18.57L131.72 16.99L132.84 17.98L129.83 20L113 20L131.69 9.27L142.94 18.57L154.85 18.57L149.07 13.63L150.47 12.92L158.7 20L142.44 20L131.55 10.99ZM131.67 9.52L131.67 9.52L142.87 18.78L131.67 9.52ZM129.76 19.8L129.77 19.8L132.5 17.96L131.7 17.24L131.7 17.24L132.5 17.96L129.76 19.8ZM158.15 19.8L158.15 19.8L150.44 13.16L150.44 13.16L158.15 19.8ZM117.58 18.78L131.57 10.75L117.58 18.78Z" />
	</g>
</svg>